<svg xmlns="http://www.w3.org/2000/svg" viewBox="0 0 164.62 150.73"><defs><style>.cls-1,.cls-10,.cls-2,.cls-3,.cls-4,.cls-5,.cls-6,.cls-7{stroke:#231f20;}.cls-1,.cls-10,.cls-2,.cls-3,.cls-4,.cls-5,.cls-6,.cls-7,.cls-8{stroke-miterlimit:10;}.cls-1,.cls-10,.cls-2,.cls-4,.cls-7{stroke-width:2px;}.cls-2{fill:#df005e;}.cls-3{fill:#00bfd4;}.cls-3,.cls-8{stroke-width:3px;}.cls-4{fill:#fff;}.cls-5,.cls-9{fill:#231f20;}.cls-10,.cls-6,.cls-7,.cls-8{fill:none;}.cls-8{stroke:#fff;}.cls-10,.cls-8{stroke-linecap:round;}.cls-10{stroke-dasharray:0 3;}</style></defs><g id="shadow"><ellipse class="cls-1" cx="88.29" cy="137.74" rx="75.33" ry="11.98"/></g><g id="shoe_2" data-name="shoe 2"><path class="cls-2" d="M137.3,114.74l-17.05-56.8,10-2.7a6.74,6.74,0,0,1,8.13,4.6L155.21,116a.65.65,0,0,1-.45.83l-9.33,2.52A6.74,6.74,0,0,1,137.3,114.74Z" transform="translate(-27.53 -27.38)"/><path class="cls-3" d="M101.73,102.75l0-.16a3.8,3.8,0,0,1-.39-.33L62.6,65.59a7.44,7.44,0,0,1-.46-10.5L84.78,31.17A7,7,0,0,1,89.61,29c.28,16.05,13.8,29.24,30.28,29.5L129,84.09l19,53.54Z" transform="translate(-27.53 -27.38)"/><path class="cls-4" d="M173.51,157.41c-.95,1.93-2.06,3.93-4,4.9s-4.52.66-6.78.09a76.86,76.86,0,0,1-13.8-5.18c-1-.48-2.06-1-3.08-1.47a77.52,77.52,0,0,1-14.55-9,46.45,46.45,0,0,1-6.1-5.88,15.66,15.66,0,0,0-2-2.43,26.91,26.91,0,0,1-2.85-1.93c-.11-.12-64.53-63.58-64.53-63.58a8.13,8.13,0,0,1-.26-11.49l3.52-3.56a3.06,3.06,0,0,1,4.31,0l68.22,67.2a8.46,8.46,0,0,1,2,3.15,10.44,10.44,0,0,1,6-.3c7.38,2,13.88,6.51,20.19,10.94l10.54,7.42c1.84,1.31,3.82,2.79,4.4,5S174.44,155.51,173.51,157.41Z" transform="translate(-27.53 -27.38)"/><path class="cls-2" d="M175.05,150.24c-.25-.43-14-23.72-20.72-35.41a25.76,25.76,0,0,0-13.64.36,24.68,24.68,0,0,0-11.28,7.3,31.25,31.25,0,0,0,6.72,8.25,98.47,98.47,0,0,0,28.5,17.37C168,149.43,175.3,150.66,175.05,150.24Z" transform="translate(-27.53 -27.38)"/><path class="cls-5" d="M166.93,164.46" transform="translate(-27.53 -27.38)"/><path class="cls-6" d="M119.89,58.45C103.41,58.19,89.89,45,89.61,29v0" transform="translate(-27.53 -27.38)"/><path class="cls-7" d="M119.44,59.65a4.87,4.87,0,0,1,4.65-4.29,7.65,7.65,0,0,1,6.12,3,14.67,14.67,0,0,1,2.72,6.46" transform="translate(-27.53 -27.38)"/><path class="cls-8" d="M127.41,67.09a22.16,22.16,0,0,1,13,5.77" transform="translate(-27.53 -27.38)"/><path class="cls-8" d="M142.55,67a18.69,18.69,0,0,0-7,5" transform="translate(-27.53 -27.38)"/><path class="cls-8" d="M129.84,74.2a83,83,0,0,1,12.55,7.56" transform="translate(-27.53 -27.38)"/><path class="cls-8" d="M143.58,76.61A12.62,12.62,0,0,0,137,79.69" transform="translate(-27.53 -27.38)"/><path class="cls-8" d="M130.67,82.26A55.66,55.66,0,0,1,147,89.71" transform="translate(-27.53 -27.38)"/><path class="cls-8" d="M145.67,82.89a10.1,10.1,0,0,0-5.33,4.24" transform="translate(-27.53 -27.38)"/><path class="cls-8" d="M133.9,89.22a24.25,24.25,0,0,1,15.26,10.24" transform="translate(-27.53 -27.38)"/><path class="cls-8" d="M137.31,97.34a24.75,24.75,0,0,1,13.85,7.37" transform="translate(-27.53 -27.38)"/><path class="cls-8" d="M147.87,93.17a7.42,7.42,0,0,0-2.9,4.44" transform="translate(-27.53 -27.38)"/><path class="cls-8" d="M149.82,99.75a7.89,7.89,0,0,0-5.11,3.69" transform="translate(-27.53 -27.38)"/><path class="cls-8" d="M140.75,102.61a31.21,31.21,0,0,1,6.65,5.53" transform="translate(-27.53 -27.38)"/><path class="cls-8" d="M142,111.27a35.26,35.26,0,0,1,11.37-.71" transform="translate(-27.53 -27.38)"/><path class="cls-9" d="M90.74,33a11.19,11.19,0,0,1,7.42,5c1.83,2.89,3.19,6,5.25,8.78,4,5.39,9.31,9.79,15.83,11.75,3.09.93,4.41-3.9,1.33-4.82-6-1.8-10.8-6.21-14.17-11.35-1.91-2.92-3.19-6.22-5.41-8.93a15.74,15.74,0,0,0-8.92-5.28A2.55,2.55,0,0,0,89,29.94,2.52,2.52,0,0,0,90.74,33Z" transform="translate(-27.53 -27.38)"/><path class="cls-9" d="M91.66,36.21c3.33,3.95,6.6,7.94,10,11.83,3,3.44,6.34,6.73,10.47,8.79a2.56,2.56,0,0,0,3.42-.9,2.51,2.51,0,0,0-.9-3.42c-3.87-1.93-6.87-5-9.68-8.25-3.31-3.82-6.52-7.72-9.77-11.59a2.54,2.54,0,0,0-3.54,0,2.56,2.56,0,0,0,0,3.54Z" transform="translate(-27.53 -27.38)"/><path class="cls-9" d="M91.64,37.9c1.46,3.92,4.45,6.81,7.29,9.78s5.52,6.15,9.19,8a2.57,2.57,0,0,0,3.42-.9,2.54,2.54,0,0,0-.9-3.42A15,15,0,0,1,108.4,50l0,0-.22-.17-.53-.45q-.48-.41-.93-.84c-1.39-1.31-2.68-2.72-4-4.1s-2.58-2.66-3.8-4.05a12.91,12.91,0,0,1-1.34-1.75c-.24-.37-.47-.75-.68-1.15L96.62,37c-.36-.73.13.37-.16-.39a2.56,2.56,0,0,0-3.07-1.75,2.52,2.52,0,0,0-1.75,3.08Z" transform="translate(-27.53 -27.38)"/><path class="cls-9" d="M96.25,43.4a8.79,8.79,0,0,0,6.52,8.87A2.6,2.6,0,0,0,104.7,52a2.5,2.5,0,0,0-.6-4.57,5.39,5.39,0,0,1-.86-.28l.59.25a5.94,5.94,0,0,1-1.33-.78L103,47a6.76,6.76,0,0,1-1.17-1.16l.39.51a7.1,7.1,0,0,1-.88-1.5l.25.6a5.92,5.92,0,0,1-.41-1.48l.09.66a5.32,5.32,0,0,1,0-1.26A2.5,2.5,0,0,0,97,41.63a2.84,2.84,0,0,0-.73,1.77Z" transform="translate(-27.53 -27.38)"/><path class="cls-9" d="M116.77,58a21.08,21.08,0,0,0,4.77,1,1.9,1.9,0,0,0,1-.22,1.82,1.82,0,0,0,.8-.52,2.5,2.5,0,0,0,0-3.53l-.51-.39a2.43,2.43,0,0,0-1.26-.34l-.38,0,.66.09a18.37,18.37,0,0,1-3.72-.91,1.86,1.86,0,0,0-1-.05,1.9,1.9,0,0,0-.93.3,2.5,2.5,0,0,0-.9,3.42l.39.5a2.52,2.52,0,0,0,1.1.65Z" transform="translate(-27.53 -27.38)"/><path class="cls-2" d="M61.39,56.75,73.81,43.52a13.49,13.49,0,0,1,2,1.67c6.27,6.14,6.33,17-.18,24.4Z" transform="translate(-27.53 -27.38)"/><path class="cls-2" d="M61.39,56.75,73.81,43.52a13.49,13.49,0,0,1,2,1.67c6.27,6.14,6.33,17-.18,24.4Z" transform="translate(-27.53 -27.38)"/><path class="cls-7" d="M128.76,122a21.47,21.47,0,0,0-12.55-6.09A20.33,20.33,0,0,0,102.88,119" transform="translate(-27.53 -27.38)"/><line class="cls-6" x1="31.39" y1="31.63" x2="88.68" y2="88.49"/><path class="cls-10" d="M81.26,56.84a103.46,103.46,0,0,0,40.95,10.91" transform="translate(-27.53 -27.38)"/><path class="cls-10" d="M101.2,94.9a8.59,8.59,0,0,1,7-.23,20.68,20.68,0,0,1,6.14,3.85c3.72,3.12,7.07,6.69,10.83,9.77s8.07,5.72,12.81,6.53" transform="translate(-27.53 -27.38)"/><path class="cls-10" d="M71.88,47.44a15.3,15.3,0,0,1,4.54,9.43,14.39,14.39,0,0,1-2.76,9.86" transform="translate(-27.53 -27.38)"/><path class="cls-10" d="M131.44,125.72a28.92,28.92,0,0,1,23.81-6.85" transform="translate(-27.53 -27.38)"/></g><g id="front_shoe" data-name="front shoe"><path class="cls-2" d="M112.47,121.72l-17-56.8,10-2.7a6.74,6.74,0,0,1,8.13,4.6L130.39,123a.66.66,0,0,1-.46.83l-9.33,2.52A6.74,6.74,0,0,1,112.47,121.72Z" transform="translate(-27.53 -27.38)"/><path class="cls-3" d="M76.9,109.73l0-.16a3.9,3.9,0,0,1-.38-.33L37.78,72.57a7.43,7.43,0,0,1-.46-10.5L60,38.14a7.07,7.07,0,0,1,4.84-2.21c.27,16,13.8,29.24,30.27,29.5l9.1,25.64,19,53.54Z" transform="translate(-27.53 -27.38)"/><path class="cls-4" d="M148.68,164.39c-.94,1.93-2.06,3.93-4,4.9s-4.52.66-6.78.09a76.48,76.48,0,0,1-13.79-5.18q-1.56-.72-3.09-1.47a77.44,77.44,0,0,1-14.54-9,45.91,45.91,0,0,1-6.11-5.88,15.21,15.21,0,0,0-2-2.43,25.8,25.8,0,0,1-2.84-1.93L31.05,79.91a8.11,8.11,0,0,1-.26-11.49l3.52-3.56a3,3,0,0,1,4.3,0l68.22,67.2a8.41,8.41,0,0,1,2,3.15,10.41,10.41,0,0,1,6-.3c7.39,2,13.89,6.51,20.19,10.94q5.28,3.69,10.55,7.42c1.84,1.31,3.82,2.79,4.4,5S149.61,162.49,148.68,164.39Z" transform="translate(-27.53 -27.38)"/><path class="cls-2" d="M150.22,157.21c-.25-.42-13.94-23.71-20.72-35.4a25.76,25.76,0,0,0-13.64.36,24.74,24.74,0,0,0-11.28,7.3,31.45,31.45,0,0,0,6.72,8.25,98.6,98.6,0,0,0,28.5,17.37C143.14,156.41,150.47,157.64,150.22,157.21Z" transform="translate(-27.53 -27.38)"/><path class="cls-5" d="M142.1,171.43" transform="translate(-27.53 -27.38)"/><path class="cls-6" d="M95.06,65.43c-16.47-.26-30-13.45-30.27-29.5v0" transform="translate(-27.53 -27.38)"/><path class="cls-7" d="M94.62,66.63a4.84,4.84,0,0,1,4.64-4.29,7.65,7.65,0,0,1,6.12,3,14.67,14.67,0,0,1,2.72,6.46" transform="translate(-27.53 -27.38)"/><path class="cls-8" d="M102.59,74.07a22.19,22.19,0,0,1,13,5.77" transform="translate(-27.53 -27.38)"/><path class="cls-8" d="M117.73,74a18.61,18.61,0,0,0-7,5" transform="translate(-27.53 -27.38)"/><path class="cls-8" d="M105,81.18a82.46,82.46,0,0,1,12.55,7.56" transform="translate(-27.53 -27.38)"/><path class="cls-8" d="M118.76,83.59a12.54,12.54,0,0,0-6.56,3.08" transform="translate(-27.53 -27.38)"/><path class="cls-8" d="M105.84,89.24a55.29,55.29,0,0,1,16.36,7.45" transform="translate(-27.53 -27.38)"/><path class="cls-8" d="M120.84,89.86a10.2,10.2,0,0,0-5.33,4.25" transform="translate(-27.53 -27.38)"/><path class="cls-8" d="M109.08,96.2a24.21,24.21,0,0,1,15.25,10.24" transform="translate(-27.53 -27.38)"/><path class="cls-8" d="M112.48,104.32a24.81,24.81,0,0,1,13.86,7.37" transform="translate(-27.53 -27.38)"/><path class="cls-8" d="M123,100.15a7.33,7.33,0,0,0-2.89,4.44" transform="translate(-27.53 -27.38)"/><path class="cls-8" d="M125,106.73a7.85,7.85,0,0,0-5.11,3.69" transform="translate(-27.53 -27.38)"/><path class="cls-8" d="M115.92,109.59a31,31,0,0,1,6.65,5.53" transform="translate(-27.53 -27.38)"/><path class="cls-8" d="M117.22,118.25a35.2,35.2,0,0,1,11.36-.71" transform="translate(-27.53 -27.38)"/><path class="cls-9" d="M65.92,40a11.17,11.17,0,0,1,7.41,5c1.84,2.89,3.19,6,5.26,8.78,4,5.39,9.3,9.79,15.82,11.75,3.09.92,4.41-3.9,1.33-4.83-6-1.79-10.79-6.21-14.17-11.34-1.91-2.92-3.18-6.22-5.41-8.93a15.64,15.64,0,0,0-8.91-5.28,2.56,2.56,0,0,0-3.08,1.74A2.53,2.53,0,0,0,65.92,40Z" transform="translate(-27.53 -27.38)"/><path class="cls-9" d="M66.83,43.19c3.33,4,6.61,7.94,10,11.83,3,3.44,6.34,6.73,10.47,8.78a2.56,2.56,0,0,0,3.42-.89,2.52,2.52,0,0,0-.89-3.42c-3.88-1.93-6.88-5-9.68-8.26-3.31-3.81-6.53-7.72-9.78-11.58a2.53,2.53,0,0,0-3.54,0,2.56,2.56,0,0,0,0,3.54Z" transform="translate(-27.53 -27.38)"/><path class="cls-9" d="M66.81,44.87c1.46,3.93,4.46,6.82,7.29,9.79s5.52,6.15,9.19,8a2.56,2.56,0,0,0,3.42-.9,2.52,2.52,0,0,0-.9-3.42A15.55,15.55,0,0,1,83.57,57l0,0-.22-.17-.53-.45c-.32-.27-.62-.55-.93-.84-1.39-1.31-2.68-2.73-4-4.11s-2.58-2.65-3.79-4a12.91,12.91,0,0,1-1.34-1.75A12.06,12.06,0,0,1,72,44.41l-.24-.47c-.35-.74.13.37-.15-.4a2.58,2.58,0,0,0-3.08-1.74,2.52,2.52,0,0,0-1.75,3.07Z" transform="translate(-27.53 -27.38)"/><path class="cls-9" d="M71.42,50.38A8.8,8.8,0,0,0,78,59.25,2.57,2.57,0,0,0,79.87,59a2.5,2.5,0,0,0-.59-4.57,6.31,6.31,0,0,1-.87-.28l.6.25a6.42,6.42,0,0,1-1.34-.78l.51.39A6.76,6.76,0,0,1,77,52.85l.39.5a7.21,7.21,0,0,1-.88-1.49l.25.59A6.76,6.76,0,0,1,76.36,51l.09.67a5.32,5.32,0,0,1,0-1.26,2.5,2.5,0,0,0-4.27-1.77,2.81,2.81,0,0,0-.73,1.77Z" transform="translate(-27.53 -27.38)"/><path class="cls-9" d="M92,65a20.94,20.94,0,0,0,4.77,1,2.7,2.7,0,0,0,1.76-.73,2.54,2.54,0,0,0,.74-1.77,2.49,2.49,0,0,0-.74-1.76L98,61.4a2.54,2.54,0,0,0-1.26-.35l-.39,0,.66.09a17.67,17.67,0,0,1-3.71-.92,1.89,1.89,0,0,0-1,0,1.77,1.77,0,0,0-.93.3,2.53,2.53,0,0,0-1.15,1.49,2.6,2.6,0,0,0,.25,1.93l.4.5A2.46,2.46,0,0,0,92,65Z" transform="translate(-27.53 -27.38)"/><path class="cls-2" d="M36.56,63.73,49,50.5A13,13,0,0,1,51,52.17c6.28,6.14,6.33,17-.18,24.4Z" transform="translate(-27.53 -27.38)"/><path class="cls-2" d="M36.56,63.73,49,50.5A13,13,0,0,1,51,52.17c6.28,6.14,6.33,17-.18,24.4Z" transform="translate(-27.53 -27.38)"/><path class="cls-7" d="M103.94,128.94a21.47,21.47,0,0,0-12.55-6.09,20.36,20.36,0,0,0-13.34,3.08" transform="translate(-27.53 -27.38)"/><line class="cls-6" x1="6.56" y1="38.6" x2="63.86" y2="95.47"/><path class="cls-10" d="M56.43,63.82A103.67,103.67,0,0,0,97.38,74.73" transform="translate(-27.53 -27.38)"/><path class="cls-10" d="M76.37,101.88a8.59,8.59,0,0,1,7-.23,20.35,20.35,0,0,1,6.14,3.85c3.73,3.12,7.07,6.69,10.83,9.77s8.07,5.72,12.82,6.53" transform="translate(-27.53 -27.38)"/><path class="cls-10" d="M47.05,54.42a15.22,15.22,0,0,1,4.54,9.43,14.34,14.34,0,0,1-2.76,9.86" transform="translate(-27.53 -27.38)"/><path class="cls-10" d="M106.61,132.69a29,29,0,0,1,23.82-6.84" transform="translate(-27.53 -27.38)"/></g></svg>